<svg width="480" height="90" viewBox="0 0 480 90" fill="none" xmlns="http://www.w3.org/2000/svg">
<rect x="3.30859" y="0.816437" width="477" height="67" rx="8" transform="rotate(2.61484 3.30859 0.816437)" fill="#FDFCE2"/>
<path d="M89.1968 23.4266L87.9546 54.2928L21.0567 50.8259L22.2989 19.9597L89.1968 23.4266ZM91.2456 21.4429L20.418 17.7724L19.0079 52.8097L89.8355 56.4802L91.2456 21.4429Z" fill="#585852"/>
<path d="M23.6277 49.0725L25.8051 49.1917L28.6149 32.1924L30.1341 49.4218L36.6271 49.7773L39.4574 32.5838L41.0015 50.0238L46.4688 50.3092L44.0845 23.0822L37.1705 22.7036L38.1544 24.5635C38.4006 25.0232 38.4857 25.5578 38.4003 26.0691L35.2408 45.1551L33.23 22.4879L26.2502 22.1057L27.2541 23.9597C27.5069 24.4198 27.5917 24.9613 27.506 25.4796L23.628 49.0655L23.6277 49.0725Z" fill="#585852"/>
<path d="M85.5936 52.2271L79.35 35.6033L85.5842 25.1061L81.1649 24.8642L81.3092 25.235C81.5196 25.777 81.4762 26.3957 81.1802 26.889L78.0558 32.1546L75.1911 24.5442L69.3426 24.2241L74.544 38.062L66.7439 51.2022L70.9195 51.4308L70.8852 50.5984C70.8696 50.1439 70.9793 49.6893 71.2051 49.3039L75.8384 41.5037L79.7452 51.9069L85.5936 52.2271Z" fill="#585852"/>
<path d="M60.171 23.822L59.2359 48.3528L57.4621 48.2558C55.5697 48.1522 54.0952 46.4444 54.1715 44.4443L54.9685 23.5373L49.5879 23.243L48.7455 45.3416C48.6405 48.0944 50.6655 50.4399 53.2701 50.5824L64.5126 51.1975L65.545 24.116L60.1644 23.8216L60.171 23.822Z" fill="#585852"/>
<line x1="110.398" y1="23.2253" x2="428.067" y2="37.733" stroke="#585852"/>
<line x1="109.667" y1="39.2087" x2="427.336" y2="53.7163" stroke="#585852"/>
<line x1="108.939" y1="55.192" x2="426.608" y2="69.6997" stroke="#585852"/>
<path d="M124.925 29.5179C125.481 29.247 125.857 29.116 126.054 29.125C126.276 29.1351 126.575 29.3463 126.951 29.7586C127.209 30.0667 127.368 30.3579 127.43 30.6323C127.491 30.9068 127.515 31.4634 127.502 32.3023C127.451 33.4112 127.442 34.4108 127.476 35.3013C127.509 36.1917 127.522 37.2664 127.514 38.5254C127.538 40.6994 127.595 42.1465 127.686 42.8668C127.778 43.5623 127.971 43.9169 128.267 43.9304C128.39 43.936 128.527 43.9052 128.679 43.8381C129.033 43.6567 129.379 43.6355 129.719 43.7744C130.133 43.8921 130.381 43.8664 130.463 43.6973C130.594 43.5304 131.337 43.478 132.692 43.5399C133.702 43.6106 134.328 43.6886 134.571 43.7738C134.839 43.8355 135.163 44.0601 135.54 44.4477C136.084 44.9664 136.343 45.5215 136.316 46.1128C136.289 46.7042 136.157 47.155 135.921 47.4652C135.711 47.7273 135.311 47.8448 134.719 47.8178C134.374 47.802 133.244 47.6887 131.327 47.4777C130.442 47.3879 129.938 47.3402 129.815 47.3346C129.15 47.3042 128.715 47.3707 128.51 47.5342C127.82 48.0459 126.772 48.2697 125.368 48.2056C124.653 48.1729 124.302 48.0334 124.313 47.787C124.32 47.6391 124.189 47.5344 123.92 47.4727C123.652 47.3864 123.405 47.1159 123.179 46.6611C123.042 46.4079 122.979 46.1705 122.989 45.9487C122.996 45.8009 123.071 45.508 123.215 45.0701C123.36 44.5829 123.447 44.0436 123.474 43.4522C123.493 43.0333 123.496 42.7001 123.482 42.4526C123.42 41.6595 123.457 39.7723 123.593 36.7907C123.713 34.1541 123.716 32.4628 123.602 31.7168C123.562 31.5175 123.549 31.2699 123.562 30.9742C123.589 30.3829 124.043 29.8974 124.925 29.5179ZM141.72 44.3966L143.004 43.8626L143.535 44.4054C143.77 44.6631 143.904 44.9778 143.936 45.3497C143.97 45.6969 143.947 46.7206 143.87 48.4209C143.776 50.4661 143.621 51.7059 143.404 52.1405C143.211 52.5761 142.683 52.7743 141.821 52.7349L141.71 52.7298C140.921 52.6938 140.421 52.5599 140.21 52.328C140.022 52.1218 139.949 51.5383 139.993 50.5773C140.027 49.838 140.068 49.2226 140.115 48.7309C140.139 48.1888 140.178 47.6226 140.229 47.0323C140.281 46.4421 140.314 45.9868 140.329 45.6665C140.369 45.3226 140.39 45.1384 140.391 45.1137C140.396 45.0152 140.839 44.7761 141.72 44.3966ZM141.651 39.4303C142.057 39.1772 142.544 39.0636 143.111 39.0895C144.047 39.1323 144.636 39.4925 144.876 40.1702C144.965 40.3965 145.003 40.6451 144.99 40.9162C144.969 41.3844 144.79 41.7959 144.452 42.1509C144.116 42.4813 143.687 42.6839 143.165 42.7588C143.016 42.7767 142.819 42.78 142.572 42.7688C141.932 42.7395 141.409 42.5552 141.005 42.2157C140.626 41.8527 140.447 41.4495 140.468 41.0059C140.498 40.3406 140.892 39.8154 141.651 39.4303ZM157.747 41.0543C158.318 40.4384 158.937 40.1456 159.602 40.176C159.996 40.194 160.334 40.3576 160.617 40.6668C160.922 41.0018 161.065 41.391 161.045 41.8346C161.022 42.3274 160.832 42.7138 160.473 42.9937C160.035 43.3935 159.328 44.2871 158.351 45.6747C157.398 47.0633 156.916 47.8932 156.904 48.1642C156.891 48.4353 156.755 48.713 156.495 48.9975C156.312 49.236 156.107 49.3872 155.882 49.451C155.681 49.5159 155.322 49.5365 154.805 49.5129C154.238 49.487 153.858 49.4326 153.664 49.3497C153.472 49.2421 153.237 48.9845 152.959 48.5767C152.612 48.067 152.203 47.5545 151.733 47.0392C151.331 46.6504 150.727 45.808 149.922 44.5119C149.463 43.7502 149.167 43.1935 149.035 42.8417C148.904 42.4654 148.85 42.0431 148.871 41.5749C148.895 41.0574 148.947 40.7265 149.027 40.582C149.109 40.4129 149.313 40.2741 149.639 40.1655C149.916 40.0547 150.239 40.0077 150.609 40.0246C151.372 40.0594 151.912 40.4051 152.228 41.0615C152.543 41.7426 153.025 42.5301 153.676 43.424C154.326 44.318 154.75 44.7694 154.947 44.7785C155.218 44.7908 155.397 44.6509 155.485 44.3585C155.624 44.0192 155.958 43.4665 156.487 42.7005C157.041 41.911 157.461 41.3623 157.747 41.0543ZM170.559 42.3802C170.456 41.931 170.306 41.7019 170.109 41.6929C169.936 41.6851 169.781 41.8508 169.642 42.1901C169.521 42.6785 169.459 42.9473 169.457 42.9965C169.446 43.243 169.539 43.3707 169.736 43.3797C170.278 43.4044 170.559 43.1827 170.581 42.7145C170.588 42.5667 170.58 42.4552 170.559 42.3802ZM169.819 37.4944C170.317 37.4183 170.639 37.3836 170.787 37.3904C171.354 37.4163 171.894 37.7496 172.408 38.3904C173.297 39.4681 173.941 41.0408 174.341 43.1085C174.521 44.0303 174.6 44.7377 174.577 45.2305C174.558 45.6494 174.442 46.0268 174.229 46.3628C174.043 46.6506 173.618 46.7793 172.952 46.7489L172.583 46.732C171.747 46.6445 171.173 46.5195 170.859 46.357C170.691 46.2506 170.521 46.1934 170.348 46.1855C170.102 46.1743 169.901 46.2515 169.745 46.4173C169.59 46.5584 169.508 46.7521 169.496 46.9985C169.486 47.2203 169.55 47.4454 169.688 47.674C169.871 47.9786 170.357 48.149 171.146 48.185C171.737 48.212 172.209 48.1472 172.562 47.9904C173.016 47.7889 173.452 47.6977 173.871 47.7168C174.265 47.7349 174.593 47.8486 174.856 48.0581C175.119 48.243 175.244 48.4833 175.23 48.779C175.205 49.3211 174.578 49.8109 173.348 50.2486C172.143 50.6874 170.899 50.8776 169.618 50.8191C169.248 50.8022 168.978 50.7775 168.807 50.745C167.826 50.6014 167.122 50.3347 166.695 49.9448C166.268 49.5549 166.025 48.9388 165.965 48.0965C165.88 47.2531 165.793 46.7059 165.706 46.455C165.619 46.2041 165.489 46.0747 165.316 46.0669C164.971 46.0511 164.812 45.7599 164.838 45.1931C164.855 44.8235 164.97 44.4707 165.182 44.1347C165.525 43.6565 165.758 43.4203 165.882 43.4259C165.955 43.4293 166.002 43.2215 166.021 42.8026C166.048 42.2112 166.507 41.084 167.398 39.4209C167.615 38.9864 167.967 38.5826 168.453 38.2098C168.94 37.8123 169.396 37.5738 169.819 37.4944ZM194.616 43.2566C194.473 43.1266 194.205 43.0527 193.811 43.0347C193.343 43.0133 193.018 43.0849 192.838 43.2495C192.733 43.3928 192.542 43.7915 192.265 44.4456C192.154 44.7121 192.091 45.0056 192.076 45.3259C192.055 45.7941 192.147 46.2057 192.353 46.5608C192.559 46.9159 192.823 47.1008 193.143 47.1154C193.562 47.1346 193.864 47.0002 194.05 46.7124C194.262 46.4011 194.45 45.8047 194.614 44.9232C194.709 44.4584 194.762 44.1028 194.773 43.8564C194.788 43.5361 194.735 43.3362 194.616 43.2566ZM193.185 40.5245C193.785 40.3544 194.307 40.2794 194.751 40.2997C195.342 40.3267 195.816 40.4842 196.174 40.7721C196.555 41.0611 196.736 41.4274 196.716 41.871C196.699 42.2406 196.851 42.4327 197.171 42.4473C197.516 42.4631 197.905 42.6043 198.337 42.871C198.794 43.1388 199.067 43.3858 199.155 43.6121C199.24 43.9123 199.274 44.2472 199.257 44.6168C199.237 45.0603 199.383 45.6596 199.694 46.4146C200.031 47.146 200.345 47.5678 200.636 47.6799C201.241 47.9544 201.613 48.4652 201.751 49.2123C201.773 49.2874 201.78 49.3865 201.775 49.5097C201.741 50.249 201.08 50.6632 199.792 50.7526C199.643 50.7705 199.458 50.7743 199.236 50.7642C199.039 50.7552 198.868 50.7104 198.723 50.6297C198.579 50.549 198.447 50.4566 198.329 50.3524C198.235 50.2493 198.035 50.0303 197.729 49.6953C197.213 49.1038 196.832 48.8025 196.585 48.7912C196.339 48.78 195.772 49.0257 194.885 49.5284C194.276 49.871 193.566 50.0238 192.753 49.9866C191.964 49.9506 191.352 49.8362 190.916 49.6435C190.506 49.4272 190.006 49.0217 189.416 48.4268C188.968 47.9619 188.7 47.6163 188.612 47.39C188.523 47.1637 188.494 46.7303 188.523 46.0896C188.566 45.1532 188.683 44.4796 188.875 44.0685C189.068 43.6082 189.388 43.092 189.834 42.5197C190.28 41.9474 190.577 41.6647 190.725 41.6714C190.922 41.6805 191.162 41.5556 191.446 41.2969C191.727 41.0876 192.307 40.8301 193.185 40.5245ZM209.278 35.074C209.358 34.9295 209.51 34.8624 209.731 34.8725C210.027 34.886 210.317 35.035 210.6 35.3196C210.909 35.5806 211.057 35.859 211.043 36.1547C211.029 36.475 211.083 36.638 211.206 36.6436C211.28 36.647 211.3 37.0183 211.266 37.7575L211.234 38.4598L211.041 40.2658L212.301 40.2493C212.375 40.2527 212.461 40.2566 212.559 40.2611C212.659 40.241 212.734 40.232 212.783 40.2343C213.374 40.2613 213.775 40.4031 213.986 40.6596C214.222 40.8926 214.328 41.2679 214.305 41.7853C214.25 42.9927 213.483 43.5627 212.004 43.4952L210.896 43.4445L211.008 44.2275C211.263 46.2145 211.361 47.861 211.301 49.167C211.28 49.6351 211.229 49.9292 211.149 50.049C210.8 50.675 210.12 50.965 209.11 50.9188C208.37 50.8851 207.91 50.6912 207.729 50.3372C207.549 49.9586 207.469 48.992 207.491 47.4373C207.511 45.9074 207.494 44.9312 207.439 44.5089C207.385 44.0867 207.222 43.8694 206.951 43.857C206.827 43.8513 206.728 43.8592 206.653 43.8804C206.454 43.9207 206.342 43.9403 206.317 43.9392C206.194 43.9335 206.124 43.8439 206.107 43.6703C206.09 43.4967 206.097 43.0772 206.128 42.4119C206.163 41.6481 206.208 41.1933 206.264 41.0477C206.321 40.8775 206.498 40.7991 206.793 40.8126C207.04 40.8239 207.214 40.7825 207.318 40.6884C207.422 40.5697 207.519 40.3272 207.61 39.961C207.667 39.7908 207.706 39.4716 207.728 39.0034C207.737 38.8062 207.739 38.4977 207.733 38.0777C207.753 37.6341 207.769 37.3015 207.779 37.0797C207.834 35.8723 208.145 35.2815 208.711 35.3074C208.958 35.3187 209.147 35.2409 209.278 35.074ZM235.769 36.5802C235.944 36.5387 236.131 36.5102 236.329 36.4946C236.528 36.4543 236.69 36.4247 236.814 36.4056C236.963 36.3878 237.05 36.3794 237.075 36.3805L237.112 36.3822C237.334 36.3923 237.648 36.5425 238.054 36.8327C238.462 37.0982 238.698 37.3312 238.763 37.5317C238.848 37.8319 238.881 38.1915 238.862 38.6104C238.85 38.8814 238.778 39.088 238.648 39.2303C238.52 39.3478 238.254 39.4839 237.852 39.6384C237.199 39.8801 236.663 39.9915 236.244 39.9723C235.899 39.9566 235.477 40.0114 234.977 40.1367C234.677 40.2218 234.404 40.2587 234.157 40.2474C233.985 40.2396 233.605 40.1728 233.018 40.0473C232.482 39.8993 232.078 39.8191 231.807 39.8067C231.684 39.8011 231.609 39.8101 231.584 39.8336C231.532 39.8806 231.501 40.015 231.491 40.2368C231.484 40.3846 231.493 40.7307 231.518 41.2751C231.568 41.7959 231.637 42.1695 231.726 42.3957C231.839 42.6231 232.027 42.8293 232.29 43.0141C232.602 43.2259 232.967 43.3413 233.386 43.3605C233.435 43.3627 233.484 43.365 233.533 43.3672C233.584 43.3448 233.621 43.3342 233.646 43.3353L233.794 43.3421C234.213 43.3612 234.625 43.5282 235.03 43.843C235.46 44.1589 235.668 44.4771 235.653 44.7974C235.604 45.8816 235.078 46.5737 234.077 46.8737C233.378 47.0393 232.856 47.1142 232.511 47.0985L231.957 47.0731L232.306 48.3484C232.609 49.2759 232.864 49.9048 233.072 50.2353C233.278 50.5904 233.59 50.7775 234.009 50.7966C234.083 50.8 234.491 50.7939 235.232 50.7784C235.529 50.7673 235.887 50.7713 236.306 50.7904C236.848 50.8152 237.248 50.9693 237.507 51.2527C237.814 51.563 237.959 51.903 237.942 52.2726C237.926 52.6176 237.824 52.9586 237.636 53.2957C237.446 53.6574 237.214 53.8814 236.938 53.9676C236.663 54.0538 235.943 54.1443 234.778 54.2393C234.083 54.3064 233.391 54.3241 232.701 54.2926C231.814 54.2521 230.896 54.0744 229.948 53.7594C229.022 53.4703 228.461 53.0496 228.264 52.4973C228.067 51.9451 227.994 50.5713 228.045 48.376C228.103 44.4032 228.019 41.6462 227.793 40.1049C227.714 39.6815 227.68 39.3343 227.693 39.0633C227.706 38.7676 227.843 38.4652 228.104 38.1561C228.444 37.7518 228.763 37.5318 229.061 37.496C229.359 37.4603 229.625 37.3119 229.859 37.051C230.094 36.7654 230.951 36.6441 232.431 36.687C233.986 36.7086 235.098 36.673 235.769 36.5802ZM248.519 47.0887C248.215 46.7045 247.768 46.4989 247.177 46.4719C246.93 46.4606 246.718 46.5003 246.542 46.591C246.264 46.7265 246.117 46.9544 246.103 47.2747C246.096 47.4226 246.154 47.4993 246.278 47.5049C246.425 47.5117 246.452 47.7475 246.356 48.2123L246.345 48.471C246.322 48.9638 246.557 49.2215 247.05 49.244C247.173 49.2496 247.459 49.2133 247.907 49.135C248.281 49.0533 248.52 48.9654 248.623 48.8713C248.727 48.7526 248.798 48.546 248.836 48.2514C248.858 47.7833 248.752 47.3957 248.519 47.0887ZM247.994 43.1757C248.119 43.1321 248.379 43.1192 248.773 43.1372C249.734 43.1811 250.284 43.305 250.423 43.5089C250.493 43.6108 250.719 43.7817 251.103 44.0215C252.211 44.64 252.726 45.8117 252.647 47.5365C252.593 48.7193 252.304 49.6444 251.779 50.3118C251.256 50.9546 250.382 51.4456 249.156 51.7847C248.181 52.0612 247.533 52.1921 247.212 52.1774C247.015 52.1684 246.878 52.1992 246.801 52.2698C246.748 52.3414 246.716 52.5128 246.703 52.7838C246.701 52.8331 246.708 53.2285 246.723 53.97C246.738 54.1929 246.736 54.4891 246.72 54.8588C246.683 55.6473 246.512 56.158 246.205 56.3909C245.898 56.6238 245.301 56.72 244.414 56.6795C243.601 56.6423 243.125 56.5095 242.988 56.281C242.875 56.0536 242.834 55.311 242.867 54.0532C242.881 52.671 242.806 51.3342 242.643 50.0428C242.446 48.4041 242.36 47.3137 242.385 46.7716C242.415 46.1063 242.634 45.6348 243.042 45.3571C243.349 45.1242 244.12 44.7396 245.354 44.2034C246.589 43.6671 247.468 43.3246 247.994 43.1757ZM257.802 49.698L259.086 49.164L259.617 49.7068C259.852 49.9644 259.986 50.2792 260.018 50.6511C260.052 50.9983 260.03 52.022 259.952 53.7223C259.859 55.7675 259.703 57.0073 259.486 57.4419C259.293 57.8775 258.765 58.0757 257.903 58.0363L257.792 58.0312C257.004 57.9952 256.504 57.8612 256.292 57.6293C256.104 57.4232 256.032 56.8396 256.076 55.8786C256.109 55.1394 256.15 54.524 256.197 54.0323C256.222 53.4902 256.26 52.924 256.311 52.3337C256.363 51.7435 256.396 51.2882 256.411 50.9678C256.451 50.624 256.472 50.4397 256.473 50.4151C256.478 50.3165 256.921 50.0775 257.802 49.698ZM257.733 44.7316C258.139 44.4786 258.626 44.365 259.193 44.3909C260.129 44.4337 260.718 44.7939 260.958 45.4716C261.047 45.6978 261.085 45.9465 261.072 46.2176C261.051 46.6857 260.872 47.0973 260.535 47.4523C260.198 47.7826 259.769 47.9853 259.248 48.0602C259.099 48.0781 258.901 48.0814 258.654 48.0702C258.014 48.0409 257.491 47.8566 257.087 47.5171C256.709 47.1541 256.529 46.7509 256.55 46.3073C256.58 45.642 256.974 45.1168 257.733 44.7316ZM269.102 42.8063C269.277 42.7649 269.537 42.7521 269.882 42.7679C270.646 42.8027 271.314 43.0431 271.886 43.489C272.484 43.9114 272.772 44.369 272.749 44.8619C272.732 45.2315 272.533 45.531 272.153 45.7606C271.898 45.9218 271.586 45.994 271.217 45.9771C271.069 45.9704 270.774 45.9322 270.333 45.8627L269.12 45.6591L268.708 46.5663C268.514 47.0266 268.411 47.4046 268.397 47.7003C268.369 48.3163 268.614 48.8954 269.133 49.4376C269.675 50.0056 270.365 50.3087 271.202 50.347C271.424 50.3571 271.858 50.3275 272.503 50.2582C272.9 50.2023 273.222 50.18 273.469 50.1912C273.789 50.2059 273.995 50.2894 274.087 50.4417C274.179 50.594 274.215 50.8797 274.196 51.2986C274.17 51.8653 273.777 52.3536 273.018 52.7633C272.283 53.1743 271.46 53.3589 270.548 53.3172C270.252 53.3037 270.031 53.2813 269.885 53.2499C268.537 53.0155 267.635 52.7644 267.178 52.4966C266.721 52.2289 266.252 51.6889 265.77 50.8767C265.357 50.1912 265.096 49.6854 264.988 49.3595C264.904 49.0346 264.878 48.5272 264.909 47.8373C264.94 47.172 265.011 46.6814 265.125 46.3656C265.239 46.0251 265.506 45.5805 265.926 45.0318C266.873 43.7663 267.932 43.0245 269.102 42.8063ZM308.694 39.0217C309.249 38.7754 309.625 38.6567 309.822 38.6657C310.019 38.6747 310.282 38.8719 310.61 39.2573C310.915 39.5922 311.055 40.0431 311.029 40.6098C311.009 41.0534 310.979 41.4347 310.94 41.754C310.73 43.1025 310.492 44.0052 310.224 44.4621C309.633 45.4969 309.332 46.1498 309.32 46.4209C309.313 46.5687 308.994 47.332 308.363 48.7106C307.706 50.1128 307.226 51.4489 306.921 52.719C306.496 54.4528 306.254 55.4294 306.194 55.6489C306.021 56.2089 305.642 56.6608 305.058 57.0045C304.5 57.3247 303.864 57.4685 303.15 57.4359C302.509 57.4066 302.023 57.2239 301.693 56.8878C301.363 56.5518 300.987 55.8679 300.564 54.8362C300.231 54.0308 299.978 53.6242 299.805 53.6163C299.633 53.6084 299.424 53.8459 299.18 54.3285C298.611 55.4384 297.966 56.3102 297.246 56.944C296.527 57.5532 295.822 57.842 295.132 57.8105L295.095 57.8088C294.875 57.774 294.596 57.6502 294.26 57.4373C293.949 57.2256 293.796 57.0581 293.802 56.9349C293.806 56.8363 293.478 56.1917 292.816 55.0009C292.154 53.8101 291.83 53.0669 291.844 52.7712C291.856 52.5002 291.754 52.298 291.538 52.1646C291.346 52.0324 291.109 51.5524 290.826 50.7247C290.477 49.721 290.103 48.7162 289.704 47.7103C289.237 46.5779 289.012 45.8391 289.028 45.4942C289.04 45.2231 288.977 44.9857 288.838 44.7818C288.72 44.6529 288.544 44.1881 288.309 43.3872C288.074 42.5863 287.962 42.075 287.972 41.8532C287.978 41.7054 288.242 41.347 288.762 40.7781C289.229 40.2809 289.61 40.0391 289.906 40.0526C290.054 40.0593 290.164 40.0767 290.237 40.1047C290.604 40.1709 290.868 40.3311 291.03 40.5854C291.216 40.8408 291.356 41.2793 291.451 41.901C291.532 42.2997 291.857 43.006 292.428 44.0198C293.069 45.1355 293.558 46.3184 293.896 47.5684C294.276 48.9932 294.523 49.7824 294.64 49.9358C294.686 50.012 294.784 50.2881 294.935 50.7642C295.019 51.089 295.254 51.6183 295.641 52.352L296.19 53.3031L296.708 52.5118C297.318 51.5767 297.991 50.3605 298.726 48.8631C299.052 48.2113 299.541 47.7769 300.193 47.5597C300.748 47.3134 301.16 47.1965 301.431 47.2088C301.653 47.219 301.9 47.4895 302.172 48.0205C302.445 48.5268 302.62 49.0286 302.696 49.5259C302.75 49.9728 302.855 50.3604 303.013 50.6886C303.172 50.9922 303.338 51.1479 303.51 51.1558C303.634 51.1614 303.946 50.5337 304.448 49.2726C304.869 48.1807 305.085 47.4868 305.099 47.1911C305.106 47.0433 305.067 46.8193 304.982 46.5191C304.918 46.2939 304.892 46.0458 304.904 45.7748C304.945 44.8877 305.199 44.4549 305.667 44.4762C305.865 44.4852 306.035 44.2708 306.178 43.8329C306.211 43.6615 306.509 42.8109 307.073 41.281C307.407 40.4567 307.665 39.9253 307.849 39.6868C308.034 39.4236 308.316 39.2019 308.694 39.0217ZM320.282 49.2179C320.179 48.7688 320.029 48.5397 319.832 48.5307C319.659 48.5228 319.504 48.6885 319.365 49.0279C319.244 49.5162 319.182 49.785 319.18 49.8343C319.168 50.0807 319.261 50.2084 319.458 50.2174C320.001 50.2421 320.282 50.0204 320.304 49.5523C320.31 49.4044 320.303 49.293 320.282 49.2179ZM319.542 44.3321C320.039 44.256 320.362 44.2214 320.51 44.2281C321.077 44.254 321.617 44.5873 322.131 45.2281C323.02 46.3058 323.664 47.8785 324.064 49.9462C324.244 50.868 324.323 51.5754 324.3 52.0682C324.281 52.4871 324.165 52.8645 323.952 53.2005C323.766 53.4883 323.34 53.617 322.675 53.5866L322.306 53.5698C321.47 53.4822 320.895 53.3572 320.582 53.1947C320.414 53.0883 320.244 53.0311 320.071 53.0233C319.825 53.012 319.624 53.0892 319.468 53.255C319.313 53.3961 319.23 53.5898 319.219 53.8362C319.209 54.058 319.273 54.2832 319.411 54.5117C319.594 54.8164 320.08 54.9867 320.869 55.0227C321.46 55.0497 321.932 54.9849 322.285 54.8281C322.739 54.6266 323.175 54.5354 323.594 54.5546C323.988 54.5726 324.316 54.6863 324.578 54.8958C324.842 55.0807 324.966 55.321 324.953 55.6167C324.928 56.1588 324.301 56.6487 323.071 57.0863C321.866 57.5251 320.622 57.7153 319.341 57.6568C318.971 57.6399 318.701 57.6152 318.53 57.5827C317.548 57.4391 316.844 57.1724 316.418 56.7825C315.991 56.3926 315.748 55.7766 315.687 54.9343C315.602 54.0908 315.516 53.5437 315.429 53.2928C315.342 53.0418 315.212 52.9125 315.039 52.9046C314.694 52.8888 314.535 52.5976 314.561 52.0308C314.578 51.6612 314.692 51.3084 314.905 50.9725C315.248 50.4943 315.481 50.258 315.604 50.2636C315.678 50.267 315.725 50.0592 315.744 49.6403C315.771 49.0489 316.23 47.9217 317.121 46.2586C317.338 45.8241 317.69 45.4204 318.176 45.0475C318.663 44.65 319.119 44.4115 319.542 44.3321ZM335.443 55.0957C335.194 54.5905 334.898 54.33 334.553 54.3143C334.208 54.2985 333.901 54.5191 333.634 54.976C333.366 55.433 333.226 55.7846 333.215 56.031C333.198 56.4007 333.496 56.6365 334.109 56.7385C334.28 56.7711 334.514 56.7941 334.809 56.8076C335.499 56.8391 335.853 56.6577 335.871 56.2635C335.882 56.017 335.74 55.6278 335.443 55.0957ZM330.019 44.1068C330.5 43.8325 331.037 43.7088 331.628 43.7358C332.072 43.7561 332.363 43.8682 332.502 44.072C332.872 44.6075 333.04 45.2695 333.004 46.058C332.994 46.2798 332.949 46.4383 332.871 46.5335C332.761 46.7754 332.678 47.5123 332.622 48.7444L332.588 49.4836L332.547 52.0004L333.265 51.6998C333.769 51.4759 334.452 51.3836 335.314 51.423C336.078 51.4579 336.653 51.5829 337.038 51.798C337.471 52.0401 337.893 52.5408 338.303 53.3003C338.714 54.0352 339.01 54.8512 339.191 55.7484C339.354 56.4966 339.428 57.0555 339.411 57.4252C339.379 58.1151 338.95 58.6017 338.122 58.8849C337.896 58.9733 337.607 59.0836 337.255 59.2157C336.902 59.3724 336.688 59.4614 336.613 59.4827C336.134 59.7077 335.524 59.8033 334.785 59.7696C334.194 59.7426 333.742 59.6355 333.429 59.4484C333.022 59.1828 332.695 59.0444 332.448 59.0332C332.3 59.0264 332.121 58.9071 331.909 58.6752C331.723 58.4198 331.311 58.2528 330.673 58.1743C329.788 58.0845 329.262 57.6901 329.097 56.9912C328.932 56.2676 328.918 54.1557 329.053 50.6556L329.296 44.5183L330.019 44.1068ZM358.546 41.965C358.98 41.6392 359.493 41.4898 360.085 41.5168C360.676 41.5438 361.235 41.7298 361.763 42.0749C362.339 42.4469 362.617 42.8423 362.598 43.2612C362.585 43.5323 362.486 43.824 362.298 44.1365C362.056 44.5699 361.771 44.8779 361.441 45.0603C361.113 45.2182 360.577 45.3419 359.832 45.4313C358.89 45.5117 358.145 45.8605 357.599 46.4775C357.052 47.0945 356.758 47.8589 356.716 48.7706C356.657 50.0766 357.096 51.2572 358.036 52.3125C358.741 53.0855 359.23 53.4782 359.501 53.4906C359.796 53.5041 360.05 53.6268 360.262 53.8587C360.476 54.0413 360.706 54.1382 360.952 54.1495C361.149 54.1585 361.596 54.1172 362.291 54.0255C362.789 53.9494 363.234 53.9204 363.629 53.9384C364.22 53.9654 364.665 54.2326 364.962 54.7401C365.031 54.8666 365.062 55.0039 365.055 55.1517C365.04 55.472 364.888 55.8355 364.598 56.242C364.333 56.625 363.999 56.9184 363.594 57.1221C363.138 57.3729 362.699 57.5257 362.277 57.5805C361.855 57.6353 360.978 57.6446 359.646 57.6085C359.201 57.6129 358.671 57.601 358.055 57.5729C357.193 57.5335 356.766 57.4029 356.777 57.1812C356.787 56.9594 356.54 56.6888 356.036 56.3695C355.222 55.8138 354.617 55.2676 354.222 54.731C353.828 54.1698 353.529 53.4154 353.325 52.4678C353.1 51.4451 353.003 50.5888 353.035 49.8989C353.084 48.8147 353.43 47.744 354.071 46.6868C354.683 45.7024 355.031 45.1133 355.114 44.9195C355.436 44.3663 355.83 43.8411 356.297 43.3439C356.765 42.8467 357.11 42.5785 357.334 42.5393C357.657 42.5047 358.061 42.3132 358.546 41.965ZM375.173 50.5025C374.844 50.1418 374.384 49.9479 373.792 49.9209C373.299 49.8984 373.01 50.021 372.924 50.2886C372.78 50.7265 372.641 51.0782 372.505 51.3436C372.451 51.4399 372.419 51.6113 372.407 51.8577C372.389 52.252 372.483 52.6267 372.689 52.9818C372.895 53.3369 373.146 53.5212 373.442 53.5347C374.033 53.5617 374.535 53.387 374.948 53.0108C375.386 52.611 375.616 52.1647 375.638 51.6719C375.659 51.2284 375.504 50.8386 375.173 50.5025ZM371.202 47.4321C371.406 47.2933 371.693 47.2323 372.062 47.2492C372.309 47.2604 372.493 47.2812 372.615 47.3115C373.129 47.409 373.829 47.5027 374.713 47.5925C376.381 47.8415 377.566 48.3894 378.268 49.2364C378.549 49.5702 378.821 50.1012 379.084 50.8293C379.347 51.5573 379.471 52.0939 379.455 52.4389C379.45 52.5621 379.434 52.6354 379.408 52.6589C379.329 52.7788 379.229 53.0582 379.111 53.4972C378.988 54.0102 378.531 54.5696 377.738 55.1753C376.97 55.7576 376.15 56.1523 375.276 56.3593C374.253 56.5842 373.483 56.6848 372.966 56.6612C372.227 56.6274 371.547 56.3618 370.928 55.8644C370.19 55.2628 369.709 54.7222 369.484 54.2428C369.259 53.7634 369.167 53.0555 369.21 52.1191C369.257 51.0842 369.525 50.0964 370.012 49.1556C370.525 48.1914 370.922 47.6169 371.202 47.4321ZM387.814 48.4871C388.201 48.1344 388.507 47.9138 388.733 47.8253C388.984 47.738 389.356 47.7056 389.849 47.7281C390.784 47.7955 391.52 48.1872 392.055 48.903C392.591 49.5942 393.031 50.7871 393.373 52.4818C393.596 53.5538 393.687 54.521 393.648 55.3834C393.617 56.0487 393.5 56.4631 393.295 56.6266C393.089 56.8147 392.699 56.9698 392.125 57.0917C391.9 57.1555 391.689 57.1829 391.492 57.1739C391.024 57.1525 390.692 56.8411 390.497 56.2396C390.304 55.6134 390.147 54.4581 390.026 52.7735C389.921 51.8304 389.819 51.3565 389.721 51.352C389.597 51.3464 389.269 51.7759 388.736 52.6405C388.202 53.505 387.824 54.2162 387.601 54.7739C387.515 55.0416 387.467 55.274 387.458 55.4711C387.447 55.7175 387.473 55.9533 387.537 56.1785C387.603 56.3543 387.633 56.5162 387.626 56.664C387.608 57.0583 387.237 57.6216 386.512 58.3539C386.074 58.7537 385.695 58.9463 385.374 58.9317C385.177 58.9226 385.018 58.903 384.895 58.8727C383.623 58.6171 383.012 57.9472 383.061 56.863C383.147 54.9903 383.279 53.1691 383.459 51.3994C383.663 49.6309 383.827 48.7371 383.952 48.7181C384.127 48.6767 384.343 48.5384 384.6 48.3033C384.807 48.1152 385.107 48.0301 385.501 48.0481C385.871 48.065 386.199 48.1664 386.487 48.3524C386.775 48.5384 386.913 48.7669 386.9 49.038C386.891 49.2351 387.196 49.0515 387.814 48.4871ZM399.782 44.1075C400.287 43.859 400.873 43.7499 401.538 43.7803C402.08 43.805 402.519 43.9239 402.855 44.1367C403.359 44.4561 403.771 44.8947 404.091 45.4525C404.413 45.9857 404.562 46.4988 404.54 46.9916C404.533 47.1394 404.515 47.2497 404.487 47.3225C404.367 47.7862 404.11 48.009 403.716 47.991C403.371 47.9753 402.898 47.7932 402.297 47.4447C401.936 47.2307 401.62 47.1175 401.349 47.1051C401.251 47.1006 401.188 47.1101 401.163 47.1337C401.06 47.2277 400.994 47.5704 400.967 48.1618C400.958 48.359 400.964 48.779 400.984 49.4219L401.074 51.5002L402.072 51.5457C403.77 51.6727 404.818 51.9798 405.215 52.4671C405.521 52.8021 405.666 53.1544 405.649 53.524C405.634 53.8443 405.485 54.1338 405.202 54.3925C404.892 54.6747 404.516 54.8056 404.073 54.7854C403.974 54.7809 403.63 54.7405 403.041 54.6642L401.421 54.4421L401.454 56.9622C401.459 57.4069 401.448 57.9249 401.421 58.5163C401.388 59.2309 401.204 59.7533 400.867 60.0837C400.454 60.4846 399.952 60.6715 399.36 60.6445C398.794 60.6186 398.391 60.5015 398.154 60.2931C397.941 60.0858 397.847 59.7112 397.872 59.1691C397.887 58.8487 397.91 58.6029 397.943 58.4315C397.974 58.2848 397.998 58.039 398.014 57.694C398.048 56.9301 397.989 56.0755 397.834 55.1301C397.644 53.8868 397.608 51.9715 397.726 49.3842C397.808 47.5854 397.884 46.4777 397.952 46.0611C398.022 45.6198 398.198 45.2698 398.482 45.0111C398.842 44.6819 399.276 44.3807 399.782 44.1075ZM410.087 60.3195C410.297 60.0575 410.66 59.9383 411.178 59.9619C411.769 59.9889 412.218 60.1699 412.523 60.5049C412.782 60.7883 412.902 61.1395 412.883 61.5584C412.857 62.1251 412.623 62.6453 412.182 63.119C411.764 63.6185 411.284 63.8558 410.742 63.8311C409.66 63.7323 409.141 63.2024 409.185 62.2414C409.213 61.6253 409.514 60.9847 410.087 60.3195ZM410.657 42.1596C410.733 42.1384 410.906 42.1339 411.177 42.1463C412.236 42.1947 412.885 42.3108 413.124 42.4945C413.244 42.5741 413.339 43.7266 413.41 45.9522C413.483 48.1531 413.486 49.9805 413.419 51.4343L413.406 51.73L413.364 52.654L413.338 53.2085C413.307 53.8984 413.07 54.4925 412.627 54.9909C411.927 55.7244 411.392 56.0827 411.022 56.0658C410.776 56.0545 410.452 55.8545 410.05 55.4658L409.447 54.8827L409.796 48.8613C410.061 44.6757 410.235 42.4984 410.316 42.3293C410.343 42.2811 410.457 42.2246 410.657 42.1596Z" fill="black"/>
<rect x="455.721" y="34.9918" width="14" height="40" transform="rotate(2.61484 455.721 34.9918)" stroke="black"/>
<path d="M461.37 69.1932C460.616 68.1817 459.972 67.5436 459.061 67.502C457.958 67.4517 457.35 68.1446 457.303 69.1676C457.254 70.2385 457.956 71.0073 459.171 71.0628L459.346 71.0708L459.241 73.3884L458.921 73.3738C456.811 73.2774 455.253 71.6206 455.37 69.0633C455.49 66.442 456.977 65.0845 459.071 65.1801C460.717 65.2553 461.683 66.1963 462.754 67.6547L464.685 70.2575L464.908 65.3826L466.842 65.4709L466.467 73.6863L464.692 73.6053L461.37 69.1932ZM461.037 64.2204C457.696 64.0678 455.689 62.0702 455.813 59.369C455.937 56.6518 458.117 54.8454 461.458 54.998L461.969 55.0214C465.374 55.1768 467.317 57.1716 467.193 59.8887C467.069 62.5899 464.953 64.3992 461.548 64.2437L461.037 64.2204ZM461.433 57.3033C459.131 57.1981 457.825 58.0835 457.763 59.4581C457.701 60.8166 458.92 61.8173 461.222 61.9224L461.573 61.9385C463.891 62.0443 465.181 61.1583 465.243 59.7997C465.306 58.4251 464.102 57.4252 461.784 57.3193L461.433 57.3033ZM462.252 49.8852C461.497 48.8737 460.854 48.2356 459.943 48.194C458.84 48.1437 458.232 48.8366 458.185 49.8596C458.136 50.9305 458.838 51.6993 460.052 51.7548L460.228 51.7628L460.122 54.0804L459.803 54.0658C457.693 53.9694 456.135 52.3126 456.252 49.7553C456.371 47.134 457.859 45.7765 459.953 45.8721C461.599 45.9473 462.565 46.8883 463.636 48.3467L465.567 50.9495L465.789 46.0746L467.723 46.1629L467.348 54.3783L465.574 54.2973L462.252 49.8852ZM456.601 44.2051L456.937 36.8527L458.871 36.9411L458.631 42.1996L461.07 42.4391C460.585 41.8563 460.314 41.1072 460.36 40.1163C460.463 37.8626 462.082 36.415 464.368 36.5194C466.941 36.6369 468.164 38.6148 468.058 40.9324C467.94 43.5217 466.221 45.0448 464.171 45.0473L464.275 42.7617C465.287 42.6958 466.118 42.029 466.173 40.8302C466.218 39.8553 465.589 38.8976 464.262 38.837C463.079 38.783 462.214 39.4962 462.161 40.663C462.132 41.2864 462.332 42.1604 463.241 42.6023L463.14 44.824L456.601 44.2051Z" fill="black"/>
<path d="M441.976 75.0905L442.037 73.7719L449.137 71.1171L442.306 67.8621L442.366 66.5674L450.757 66.9506L450.71 67.9696L444.093 67.6674L450.583 70.7507L450.541 71.6737L443.797 74.1526L450.414 74.4548L450.368 75.4738L441.976 75.0905ZM450.8 66.0075L442.555 62.4236L442.611 61.1889L451.148 58.3834L451.097 59.4983L448.791 60.2819L448.624 63.9381L450.849 64.9286L450.8 66.0075ZM447.691 63.5831L447.83 60.5503L443.72 61.8882L447.691 63.5831ZM442.947 53.8381C443.024 52.1599 444.081 51.091 445.652 51.1627C446.827 51.2164 447.705 51.9652 447.956 53.0578L451.47 51.3323L451.416 52.5071L448.111 54.134L448.014 56.2438L451.239 56.3911L451.191 57.434L442.8 57.0508L442.947 53.8381ZM443.807 56.0516L447.055 56.2L447.151 54.1142C447.201 53.0113 446.586 52.2745 445.603 52.2296C444.62 52.1847 443.952 52.863 443.903 53.9538L443.807 56.0516ZM451.759 46.5944C451.649 49.0039 449.877 50.4365 447.312 50.3194C444.771 50.2033 443.116 48.5541 443.227 46.1207C443.312 44.2626 444.453 42.9573 446.205 42.725L446.155 43.8278C444.977 44.0984 444.242 44.9537 444.184 46.2124C444.104 47.9746 445.419 49.1638 447.361 49.2525C449.291 49.3406 450.719 48.3247 450.799 46.5626C450.858 45.2679 450.216 44.3376 449.055 43.9723L449.106 42.8695C450.83 43.2605 451.845 44.7003 451.759 46.5944ZM443.517 41.3523L443.565 40.3094L447.209 40.4758L447.407 36.1363L443.763 35.9699L443.811 34.927L452.202 35.3102L452.154 36.3531L448.366 36.1801L448.168 40.5196L451.956 40.6926L451.908 41.7355L443.517 41.3523Z" fill="black"/>
</svg>
