<svg width="100" height="47" viewBox="0 0 100 47" fill="none" xmlns="http://www.w3.org/2000/svg">
<path d="M5.02734 41.8268H8.19614L11.3243 18.3522L14.4728 41.8166H23.898L27.0566 18.0783L30.2558 41.8369L38.188 41.8166L33.2317 4.72803H23.187L24.7206 7.19319C25.0964 7.80186 25.2589 8.53226 25.1574 9.24238L21.633 35.598L17.4689 4.72803H7.33287L8.89693 7.19319C9.28288 7.81201 9.44539 8.54239 9.35398 9.26266L5.03751 41.8369L5.02734 41.8268Z" fill="#808285"/>
<path d="M95.3723 41.8166L85.4089 19.5493L93.859 4.72803H87.4504L87.6738 5.22513C88.0089 5.95554 87.9784 6.79753 87.5823 7.49751L83.3471 14.9335L78.7767 4.73818H70.2962L78.5939 23.2723L68.0312 41.8268H74.0845L73.9931 40.6906C73.9423 40.0616 74.0743 39.4428 74.3892 38.895L80.6658 27.8881L86.8917 41.8268H95.3723V41.8166Z" fill="#808285"/>
<path d="M100 46.5535H0V0H100V46.5535ZM1.86881 44.6869H98.1312V1.85648H1.86881V44.6869Z" fill="#808285"/>
<path d="M56.7831 4.72803V38.3269H54.2135C51.4712 38.3269 49.247 36.1052 49.247 33.3662V4.73818H41.457V34.9995C41.457 38.7733 44.5141 41.8268 48.2923 41.8268H64.5832V4.73818H56.7932L56.7831 4.72803Z" fill="#808285"/>
</svg>
