<svg width="723" height="11" viewBox="0 0 723 11" fill="none" xmlns="http://www.w3.org/2000/svg">
<path d="M1.51562 8.45312V9.625H0.34375V7.28125H1.51562V6.10938H2.6875V4.9375H1.51562V3.76562H0.34375V1.42188H1.51562V2.59375H2.6875V3.76562H3.85938V0.25H6.20312V3.76562H7.375V2.59375H8.54688V1.42188H9.71875V3.76562H8.54688V4.9375H7.375V6.10938H8.54688V7.28125H9.71875V9.625H8.54688V8.45312H7.375V7.28125H6.20312V10.7969H3.85938V7.28125H2.6875V8.45312H1.51562ZM16.0581 8.45312V9.625H14.8862V7.28125H16.0581V6.10938H17.23V4.9375H16.0581V3.76562H14.8862V1.42188H16.0581V2.59375H17.23V3.76562H18.4019V0.25H20.7456V3.76562H21.9175V2.59375H23.0894V1.42188H24.2612V3.76562H23.0894V4.9375H21.9175V6.10938H23.0894V7.28125H24.2612V9.625H23.0894V8.45312H21.9175V7.28125H20.7456V10.7969H18.4019V7.28125H17.23V8.45312H16.0581ZM30.6006 8.45312V9.625H29.4287V7.28125H30.6006V6.10938H31.7725V4.9375H30.6006V3.76562H29.4287V1.42188H30.6006V2.59375H31.7725V3.76562H32.9444V0.25H35.2881V3.76562H36.46V2.59375H37.6319V1.42188H38.8037V3.76562H37.6319V4.9375H36.46V6.10938H37.6319V7.28125H38.8037V9.625H37.6319V8.45312H36.46V7.28125H35.2881V10.7969H32.9444V7.28125H31.7725V8.45312H30.6006ZM45.1431 8.45312V9.625H43.9712V7.28125H45.1431V6.10938H46.315V4.9375H45.1431V3.76562H43.9712V1.42188H45.1431V2.59375H46.315V3.76562H47.4869V0.25H49.8306V3.76562H51.0025V2.59375H52.1744V1.42188H53.3462V3.76562H52.1744V4.9375H51.0025V6.10938H52.1744V7.28125H53.3462V9.625H52.1744V8.45312H51.0025V7.28125H49.8306V10.7969H47.4869V7.28125H46.315V8.45312H45.1431ZM59.6856 8.45312V9.625H58.5137V7.28125H59.6856V6.10938H60.8575V4.9375H59.6856V3.76562H58.5137V1.42188H59.6856V2.59375H60.8575V3.76562H62.0294V0.25H64.3731V3.76562H65.545V2.59375H66.7169V1.42188H67.8887V3.76562H66.7169V4.9375H65.545V6.10938H66.7169V7.28125H67.8887V9.625H66.7169V8.45312H65.545V7.28125H64.3731V10.7969H62.0294V7.28125H60.8575V8.45312H59.6856ZM74.2281 8.45312V9.625H73.0563V7.28125H74.2281V6.10938H75.4V4.9375H74.2281V3.76562H73.0563V1.42188H74.2281V2.59375H75.4V3.76562H76.5719V0.25H78.9156V3.76562H80.0875V2.59375H81.2594V1.42188H82.4313V3.76562H81.2594V4.9375H80.0875V6.10938H81.2594V7.28125H82.4313V9.625H81.2594V8.45312H80.0875V7.28125H78.9156V10.7969H76.5719V7.28125H75.4V8.45312H74.2281ZM88.7706 8.45312V9.625H87.5987V7.28125H88.7706V6.10938H89.9425V4.9375H88.7706V3.76562H87.5987V1.42188H88.7706V2.59375H89.9425V3.76562H91.1144V0.25H93.4581V3.76562H94.63V2.59375H95.8019V1.42188H96.9737V3.76562H95.8019V4.9375H94.63V6.10938H95.8019V7.28125H96.9737V9.625H95.8019V8.45312H94.63V7.28125H93.4581V10.7969H91.1144V7.28125H89.9425V8.45312H88.7706ZM103.313 8.45312V9.625H102.141V7.28125H103.313V6.10938H104.485V4.9375H103.313V3.76562H102.141V1.42188H103.313V2.59375H104.485V3.76562H105.657V0.25H108.001V3.76562H109.173V2.59375H110.344V1.42188H111.516V3.76562H110.344V4.9375H109.173V6.10938H110.344V7.28125H111.516V9.625H110.344V8.45312H109.173V7.28125H108.001V10.7969H105.657V7.28125H104.485V8.45312H103.313ZM117.856 8.45312V9.625H116.684V7.28125H117.856V6.10938H119.027V4.9375H117.856V3.76562H116.684V1.42188H117.856V2.59375H119.027V3.76562H120.199V0.25H122.543V3.76562H123.715V2.59375H124.887V1.42188H126.059V3.76562H124.887V4.9375H123.715V6.10938H124.887V7.28125H126.059V9.625H124.887V8.45312H123.715V7.28125H122.543V10.7969H120.199V7.28125H119.027V8.45312H117.856ZM132.398 8.45312V9.625H131.226V7.28125H132.398V6.10938H133.57V4.9375H132.398V3.76562H131.226V1.42188H132.398V2.59375H133.57V3.76562H134.742V0.25H137.086V3.76562H138.258V2.59375H139.429V1.42188H140.601V3.76562H139.429V4.9375H138.258V6.10938H139.429V7.28125H140.601V9.625H139.429V8.45312H138.258V7.28125H137.086V10.7969H134.742V7.28125H133.57V8.45312H132.398ZM146.941 8.45312V9.625H145.769V7.28125H146.941V6.10938H148.113V4.9375H146.941V3.76562H145.769V1.42188H146.941V2.59375H148.113V3.76562H149.284V0.25H151.628V3.76562H152.8V2.59375H153.972V1.42188H155.144V3.76562H153.972V4.9375H152.8V6.10938H153.972V7.28125H155.144V9.625H153.972V8.45312H152.8V7.28125H151.628V10.7969H149.284V7.28125H148.113V8.45312H146.941ZM161.483 8.45312V9.625H160.311V7.28125H161.483V6.10938H162.655V4.9375H161.483V3.76562H160.311V1.42188H161.483V2.59375H162.655V3.76562H163.827V0.25H166.171V3.76562H167.342V2.59375H168.514V1.42188H169.686V3.76562H168.514V4.9375H167.342V6.10938H168.514V7.28125H169.686V9.625H168.514V8.45312H167.342V7.28125H166.171V10.7969H163.827V7.28125H162.655V8.45312H161.483ZM176.026 8.45312V9.625H174.854V7.28125H176.026V6.10938H177.197V4.9375H176.026V3.76562H174.854V1.42188H176.026V2.59375H177.197V3.76562H178.369V0.25H180.713V3.76562H181.885V2.59375H183.057V1.42188H184.229V3.76562H183.057V4.9375H181.885V6.10938H183.057V7.28125H184.229V9.625H183.057V8.45312H181.885V7.28125H180.713V10.7969H178.369V7.28125H177.197V8.45312H176.026ZM190.568 8.45312V9.625H189.396V7.28125H190.568V6.10938H191.74V4.9375H190.568V3.76562H189.396V1.42188H190.568V2.59375H191.74V3.76562H192.912V0.25H195.256V3.76562H196.428V2.59375H197.599V1.42188H198.771V3.76562H197.599V4.9375H196.428V6.10938H197.599V7.28125H198.771V9.625H197.599V8.45312H196.428V7.28125H195.256V10.7969H192.912V7.28125H191.74V8.45312H190.568ZM205.111 8.45312V9.625H203.939V7.28125H205.111V6.10938H206.283V4.9375H205.111V3.76562H203.939V1.42188H205.111V2.59375H206.283V3.76562H207.454V0.25H209.798V3.76562H210.97V2.59375H212.142V1.42188H213.314V3.76562H212.142V4.9375H210.97V6.10938H212.142V7.28125H213.314V9.625H212.142V8.45312H210.97V7.28125H209.798V10.7969H207.454V7.28125H206.283V8.45312H205.111ZM219.653 8.45312V9.625H218.481V7.28125H219.653V6.10938H220.825V4.9375H219.653V3.76562H218.481V1.42188H219.653V2.59375H220.825V3.76562H221.997V0.25H224.341V3.76562H225.512V2.59375H226.684V1.42188H227.856V3.76562H226.684V4.9375H225.512V6.10938H226.684V7.28125H227.856V9.625H226.684V8.45312H225.512V7.28125H224.341V10.7969H221.997V7.28125H220.825V8.45312H219.653ZM234.196 8.45312V9.625H233.024V7.28125H234.196V6.10938H235.367V4.9375H234.196V3.76562H233.024V1.42188H234.196V2.59375H235.367V3.76562H236.539V0.25H238.883V3.76562H240.055V2.59375H241.227V1.42188H242.399V3.76562H241.227V4.9375H240.055V6.10938H241.227V7.28125H242.399V9.625H241.227V8.45312H240.055V7.28125H238.883V10.7969H236.539V7.28125H235.367V8.45312H234.196ZM248.738 8.45312V9.625H247.566V7.28125H248.738V6.10938H249.91V4.9375H248.738V3.76562H247.566V1.42188H248.738V2.59375H249.91V3.76562H251.082V0.25H253.426V3.76562H254.598V2.59375H255.769V1.42188H256.941V3.76562H255.769V4.9375H254.598V6.10938H255.769V7.28125H256.941V9.625H255.769V8.45312H254.598V7.28125H253.426V10.7969H251.082V7.28125H249.91V8.45312H248.738ZM263.281 8.45312V9.625H262.109V7.28125H263.281V6.10938H264.453V4.9375H263.281V3.76562H262.109V1.42188H263.281V2.59375H264.453V3.76562H265.624V0.25H267.968V3.76562H269.14V2.59375H270.312V1.42188H271.484V3.76562H270.312V4.9375H269.14V6.10938H270.312V7.28125H271.484V9.625H270.312V8.45312H269.14V7.28125H267.968V10.7969H265.624V7.28125H264.453V8.45312H263.281ZM277.823 8.45312V9.625H276.651V7.28125H277.823V6.10938H278.995V4.9375H277.823V3.76562H276.651V1.42188H277.823V2.59375H278.995V3.76562H280.167V0.25H282.511V3.76562H283.682V2.59375H284.854V1.42188H286.026V3.76562H284.854V4.9375H283.682V6.10938H284.854V7.28125H286.026V9.625H284.854V8.45312H283.682V7.28125H282.511V10.7969H280.167V7.28125H278.995V8.45312H277.823ZM292.366 8.45312V9.625H291.194V7.28125H292.366V6.10938H293.538V4.9375H292.366V3.76562H291.194V1.42188H292.366V2.59375H293.538V3.76562H294.709V0.25H297.053V3.76562H298.225V2.59375H299.397V1.42188H300.569V3.76562H299.397V4.9375H298.225V6.10938H299.397V7.28125H300.569V9.625H299.397V8.45312H298.225V7.28125H297.053V10.7969H294.709V7.28125H293.538V8.45312H292.366ZM306.908 8.45312V9.625H305.736V7.28125H306.908V6.10938H308.08V4.9375H306.908V3.76562H305.736V1.42188H306.908V2.59375H308.08V3.76562H309.252V0.25H311.596V3.76562H312.767V2.59375H313.939V1.42188H315.111V3.76562H313.939V4.9375H312.767V6.10938H313.939V7.28125H315.111V9.625H313.939V8.45312H312.767V7.28125H311.596V10.7969H309.252V7.28125H308.08V8.45312H306.908ZM321.451 8.45312V9.625H320.279V7.28125H321.451V6.10938H322.622V4.9375H321.451V3.76562H320.279V1.42188H321.451V2.59375H322.622V3.76562H323.794V0.25H326.138V3.76562H327.31V2.59375H328.482V1.42188H329.654V3.76562H328.482V4.9375H327.31V6.10938H328.482V7.28125H329.654V9.625H328.482V8.45312H327.31V7.28125H326.138V10.7969H323.794V7.28125H322.622V8.45312H321.451ZM335.993 8.45312V9.625H334.821V7.28125H335.993V6.10938H337.165V4.9375H335.993V3.76562H334.821V1.42188H335.993V2.59375H337.165V3.76562H338.337V0.25H340.681V3.76562H341.853V2.59375H343.024V1.42188H344.196V3.76562H343.024V4.9375H341.853V6.10938H343.024V7.28125H344.196V9.625H343.024V8.45312H341.853V7.28125H340.681V10.7969H338.337V7.28125H337.165V8.45312H335.993ZM350.536 8.45312V9.625H349.364V7.28125H350.536V6.10938H351.707V4.9375H350.536V3.76562H349.364V1.42188H350.536V2.59375H351.707V3.76562H352.879V0.25H355.223V3.76562H356.395V2.59375H357.567V1.42188H358.739V3.76562H357.567V4.9375H356.395V6.10938H357.567V7.28125H358.739V9.625H357.567V8.45312H356.395V7.28125H355.223V10.7969H352.879V7.28125H351.707V8.45312H350.536ZM365.078 8.45312V9.625H363.906V7.28125H365.078V6.10938H366.25V4.9375H365.078V3.76562H363.906V1.42188H365.078V2.59375H366.25V3.76562H367.422V0.25H369.766V3.76562H370.938V2.59375H372.109V1.42188H373.281V3.76562H372.109V4.9375H370.938V6.10938H372.109V7.28125H373.281V9.625H372.109V8.45312H370.938V7.28125H369.766V10.7969H367.422V7.28125H366.25V8.45312H365.078ZM379.621 8.45312V9.625H378.449V7.28125H379.621V6.10938H380.793V4.9375H379.621V3.76562H378.449V1.42188H379.621V2.59375H380.793V3.76562H381.964V0.25H384.308V3.76562H385.48V2.59375H386.652V1.42188H387.824V3.76562H386.652V4.9375H385.48V6.10938H386.652V7.28125H387.824V9.625H386.652V8.45312H385.48V7.28125H384.308V10.7969H381.964V7.28125H380.793V8.45312H379.621ZM394.163 8.45312V9.625H392.991V7.28125H394.163V6.10938H395.335V4.9375H394.163V3.76562H392.991V1.42188H394.163V2.59375H395.335V3.76562H396.507V0.25H398.851V3.76562H400.022V2.59375H401.194V1.42188H402.366V3.76562H401.194V4.9375H400.022V6.10938H401.194V7.28125H402.366V9.625H401.194V8.45312H400.022V7.28125H398.851V10.7969H396.507V7.28125H395.335V8.45312H394.163ZM408.706 8.45312V9.625H407.534V7.28125H408.706V6.10938H409.878V4.9375H408.706V3.76562H407.534V1.42188H408.706V2.59375H409.878V3.76562H411.049V0.25H413.393V3.76562H414.565V2.59375H415.737V1.42188H416.909V3.76562H415.737V4.9375H414.565V6.10938H415.737V7.28125H416.909V9.625H415.737V8.45312H414.565V7.28125H413.393V10.7969H411.049V7.28125H409.878V8.45312H408.706ZM423.248 8.45312V9.625H422.076V7.28125H423.248V6.10938H424.42V4.9375H423.248V3.76562H422.076V1.42188H423.248V2.59375H424.42V3.76562H425.592V0.25H427.936V3.76562H429.108V2.59375H430.279V1.42188H431.451V3.76562H430.279V4.9375H429.108V6.10938H430.279V7.28125H431.451V9.625H430.279V8.45312H429.108V7.28125H427.936V10.7969H425.592V7.28125H424.42V8.45312H423.248ZM437.791 8.45312V9.625H436.619V7.28125H437.791V6.10938H438.962V4.9375H437.791V3.76562H436.619V1.42188H437.791V2.59375H438.962V3.76562H440.134V0.25H442.478V3.76562H443.65V2.59375H444.822V1.42188H445.994V3.76562H444.822V4.9375H443.65V6.10938H444.822V7.28125H445.994V9.625H444.822V8.45312H443.65V7.28125H442.478V10.7969H440.134V7.28125H438.962V8.45312H437.791ZM452.333 8.45312V9.625H451.161V7.28125H452.333V6.10938H453.505V4.9375H452.333V3.76562H451.161V1.42188H452.333V2.59375H453.505V3.76562H454.677V0.25H457.021V3.76562H458.193V2.59375H459.364V1.42188H460.536V3.76562H459.364V4.9375H458.193V6.10938H459.364V7.28125H460.536V9.625H459.364V8.45312H458.193V7.28125H457.021V10.7969H454.677V7.28125H453.505V8.45312H452.333ZM466.876 8.45312V9.625H465.704V7.28125H466.876V6.10938H468.047V4.9375H466.876V3.76562H465.704V1.42188H466.876V2.59375H468.047V3.76562H469.219V0.25H471.563V3.76562H472.735V2.59375H473.907V1.42188H475.079V3.76562H473.907V4.9375H472.735V6.10938H473.907V7.28125H475.079V9.625H473.907V8.45312H472.735V7.28125H471.563V10.7969H469.219V7.28125H468.047V8.45312H466.876ZM481.418 8.45312V9.625H480.246V7.28125H481.418V6.10938H482.59V4.9375H481.418V3.76562H480.246V1.42188H481.418V2.59375H482.59V3.76562H483.762V0.25H486.106V3.76562H487.277V2.59375H488.449V1.42188H489.621V3.76562H488.449V4.9375H487.277V6.10938H488.449V7.28125H489.621V9.625H488.449V8.45312H487.277V7.28125H486.106V10.7969H483.762V7.28125H482.59V8.45312H481.418ZM495.961 8.45312V9.625H494.789V7.28125H495.961V6.10938H497.133V4.9375H495.961V3.76562H494.789V1.42188H495.961V2.59375H497.133V3.76562H498.304V0.25H500.648V3.76562H501.82V2.59375H502.992V1.42188H504.164V3.76562H502.992V4.9375H501.82V6.10938H502.992V7.28125H504.164V9.625H502.992V8.45312H501.82V7.28125H500.648V10.7969H498.304V7.28125H497.133V8.45312H495.961ZM510.503 8.45312V9.625H509.331V7.28125H510.503V6.10938H511.675V4.9375H510.503V3.76562H509.331V1.42188H510.503V2.59375H511.675V3.76562H512.847V0.25H515.191V3.76562H516.362V2.59375H517.534V1.42188H518.706V3.76562H517.534V4.9375H516.362V6.10938H517.534V7.28125H518.706V9.625H517.534V8.45312H516.362V7.28125H515.191V10.7969H512.847V7.28125H511.675V8.45312H510.503ZM525.046 8.45312V9.625H523.874V7.28125H525.046V6.10938H526.218V4.9375H525.046V3.76562H523.874V1.42188H525.046V2.59375H526.218V3.76562H527.389V0.25H529.733V3.76562H530.905V2.59375H532.077V1.42188H533.249V3.76562H532.077V4.9375H530.905V6.10938H532.077V7.28125H533.249V9.625H532.077V8.45312H530.905V7.28125H529.733V10.7969H527.389V7.28125H526.218V8.45312H525.046ZM539.588 8.45312V9.625H538.416V7.28125H539.588V6.10938H540.76V4.9375H539.588V3.76562H538.416V1.42188H539.588V2.59375H540.76V3.76562H541.932V0.25H544.276V3.76562H545.448V2.59375H546.619V1.42188H547.791V3.76562H546.619V4.9375H545.448V6.10938H546.619V7.28125H547.791V9.625H546.619V8.45312H545.448V7.28125H544.276V10.7969H541.932V7.28125H540.76V8.45312H539.588ZM554.131 8.45312V9.625H552.959V7.28125H554.131V6.10938H555.302V4.9375H554.131V3.76562H552.959V1.42188H554.131V2.59375H555.302V3.76562H556.474V0.25H558.818V3.76562H559.99V2.59375H561.162V1.42188H562.334V3.76562H561.162V4.9375H559.99V6.10938H561.162V7.28125H562.334V9.625H561.162V8.45312H559.99V7.28125H558.818V10.7969H556.474V7.28125H555.302V8.45312H554.131ZM568.673 8.45312V9.625H567.501V7.28125H568.673V6.10938H569.845V4.9375H568.673V3.76562H567.501V1.42188H568.673V2.59375H569.845V3.76562H571.017V0.25H573.361V3.76562H574.532V2.59375H575.704V1.42188H576.876V3.76562H575.704V4.9375H574.532V6.10938H575.704V7.28125H576.876V9.625H575.704V8.45312H574.532V7.28125H573.361V10.7969H571.017V7.28125H569.845V8.45312H568.673ZM583.216 8.45312V9.625H582.044V7.28125H583.216V6.10938H584.388V4.9375H583.216V3.76562H582.044V1.42188H583.216V2.59375H584.388V3.76562H585.559V0.25H587.903V3.76562H589.075V2.59375H590.247V1.42188H591.419V3.76562H590.247V4.9375H589.075V6.10938H590.247V7.28125H591.419V9.625H590.247V8.45312H589.075V7.28125H587.903V10.7969H585.559V7.28125H584.388V8.45312H583.216ZM597.758 8.45312V9.625H596.586V7.28125H597.758V6.10938H598.93V4.9375H597.758V3.76562H596.586V1.42188H597.758V2.59375H598.93V3.76562H600.102V0.25H602.446V3.76562H603.617V2.59375H604.789V1.42188H605.961V3.76562H604.789V4.9375H603.617V6.10938H604.789V7.28125H605.961V9.625H604.789V8.45312H603.617V7.28125H602.446V10.7969H600.102V7.28125H598.93V8.45312H597.758ZM612.301 8.45312V9.625H611.129V7.28125H612.301V6.10938H613.472V4.9375H612.301V3.76562H611.129V1.42188H612.301V2.59375H613.472V3.76562H614.644V0.25H616.988V3.76562H618.16V2.59375H619.332V1.42188H620.504V3.76562H619.332V4.9375H618.16V6.10938H619.332V7.28125H620.504V9.625H619.332V8.45312H618.16V7.28125H616.988V10.7969H614.644V7.28125H613.472V8.45312H612.301ZM626.843 8.45312V9.625H625.671V7.28125H626.843V6.10938H628.015V4.9375H626.843V3.76562H625.671V1.42188H626.843V2.59375H628.015V3.76562H629.187V0.25H631.531V3.76562H632.703V2.59375H633.874V1.42188H635.046V3.76562H633.874V4.9375H632.703V6.10938H633.874V7.28125H635.046V9.625H633.874V8.45312H632.703V7.28125H631.531V10.7969H629.187V7.28125H628.015V8.45312H626.843ZM641.386 8.45312V9.625H640.214V7.28125H641.386V6.10938H642.557V4.9375H641.386V3.76562H640.214V1.42188H641.386V2.59375H642.557V3.76562H643.729V0.25H646.073V3.76562H647.245V2.59375H648.417V1.42188H649.589V3.76562H648.417V4.9375H647.245V6.10938H648.417V7.28125H649.589V9.625H648.417V8.45312H647.245V7.28125H646.073V10.7969H643.729V7.28125H642.557V8.45312H641.386ZM655.928 8.45312V9.625H654.756V7.28125H655.928V6.10938H657.1V4.9375H655.928V3.76562H654.756V1.42188H655.928V2.59375H657.1V3.76562H658.272V0.25H660.616V3.76562H661.787V2.59375H662.959V1.42188H664.131V3.76562H662.959V4.9375H661.787V6.10938H662.959V7.28125H664.131V9.625H662.959V8.45312H661.787V7.28125H660.616V10.7969H658.272V7.28125H657.1V8.45312H655.928ZM670.471 8.45312V9.625H669.299V7.28125H670.471V6.10938H671.643V4.9375H670.471V3.76562H669.299V1.42188H670.471V2.59375H671.643V3.76562H672.814V0.25H675.158V3.76562H676.33V2.59375H677.502V1.42188H678.674V3.76562H677.502V4.9375H676.33V6.10938H677.502V7.28125H678.674V9.625H677.502V8.45312H676.33V7.28125H675.158V10.7969H672.814V7.28125H671.643V8.45312H670.471ZM685.013 8.45312V9.625H683.841V7.28125H685.013V6.10938H686.185V4.9375H685.013V3.76562H683.841V1.42188H685.013V2.59375H686.185V3.76562H687.357V0.25H689.701V3.76562H690.872V2.59375H692.044V1.42188H693.216V3.76562H692.044V4.9375H690.872V6.10938H692.044V7.28125H693.216V9.625H692.044V8.45312H690.872V7.28125H689.701V10.7969H687.357V7.28125H686.185V8.45312H685.013ZM699.556 8.45312V9.625H698.384V7.28125H699.556V6.10938H700.727V4.9375H699.556V3.76562H698.384V1.42188H699.556V2.59375H700.727V3.76562H701.899V0.25H704.243V3.76562H705.415V2.59375H706.587V1.42188H707.759V3.76562H706.587V4.9375H705.415V6.10938H706.587V7.28125H707.759V9.625H706.587V8.45312H705.415V7.28125H704.243V10.7969H701.899V7.28125H700.727V8.45312H699.556ZM714.098 8.45312V9.625H712.926V7.28125H714.098V6.10938H715.27V4.9375H714.098V3.76562H712.926V1.42188H714.098V2.59375H715.27V3.76562H716.442V0.25H718.786V3.76562H719.958V2.59375H721.129V1.42188H722.301V3.76562H721.129V4.9375H719.958V6.10938H721.129V7.28125H722.301V9.625H721.129V8.45312H719.958V7.28125H718.786V10.7969H716.442V7.28125H715.27V8.45312H714.098Z" fill="black"/>
</svg>
