<?xml version="1.0" encoding="UTF-8"?>
<svg id="Layer_2" data-name="Layer 2" xmlns="http://www.w3.org/2000/svg" viewBox="0 0 166.61 166.61">
  <defs>
    <style>
      .cls-1 {
        fill: #ffc600;
      }

      .cls-2 {
        fill: #fff;
      }
    </style>
  </defs>
  <g id="Layer_1-2" data-name="Layer 1">
    <g>
      <g>
        <path class="cls-1" d="M26.55,140.09c31.4,31.4,82.24,31.32,113.56,0s31.32-82.24,0-113.56c-31.32-31.32-82.24-31.47-113.63-.07s-31.32,82.24,0,113.56l.07.07Z"/>
        <path class="cls-2" d="M83.32,166.61c-22.24,0-43.15-8.66-58.89-24.4l-.07-.07c-32.49-32.49-32.49-85.33,0-117.81,32.48-32.48,85.36-32.45,117.87.07,15.72,15.72,24.37,36.63,24.37,58.9s-8.66,43.19-24.37,58.9c-15.72,15.72-36.63,24.39-58.87,24.4h-.04ZM28.67,137.97c30.14,30.14,79.18,30.14,109.32,0,14.58-14.58,22.62-34,22.62-54.66s-8.03-40.08-22.62-54.66C107.81-1.53,58.74-1.56,28.6,28.58c-30.14,30.14-30.14,79.18,0,109.32l-2.05,2.19,2.12-2.12Z"/>
      </g>
      <g>
        <path d="M41.68,38.71c1.84,1.55,2.07,3.53,1.14,5.52,1.84-1.59,4.12-2.09,6.34-.22,2.75,2.32,2.73,5.76-.44,9.5l-4.98,5.89-15.5-13.1,4.81-5.69c2.88-3.41,6.08-4.05,8.63-1.9ZM36.97,49.31l2.71-3.21c1.48-1.75,1.48-3.46.08-4.64-1.37-1.16-3.04-.9-4.54.87l-2.71,3.21,4.45,3.76ZM43.75,55.04l2.85-3.37c1.72-2.04,1.78-3.85.34-5.07-1.53-1.29-3.34-.85-5.01,1.12l-2.85,3.37,4.67,3.95Z"/>
        <path d="M56.54,22.64l1.47,2.57-8.61,4.93,2.8,4.88,7.1-4.07,1.43,2.49-7.1,4.07,2.93,5.11,8.91-5.11,1.47,2.57-11.8,6.76-10.1-17.62,11.5-6.59Z"/>
        <path d="M78.09,17.42l.13,10.47,9.18-10.58,4.06-.05-7.35,8.62,8.15,11.67-4.03.05-6.5-9.23-3.46,3.99.07,5.37-3.34.04-.25-20.3,3.34-.04Z"/>
        <path d="M101.49,19.94l-5.26,19.6-3.22-.86,5.26-19.6,3.22.86Z"/>
        <path d="M109.36,22.21l2.63,1.53,1.34,17.41,7.22-12.45,2.83,1.64-10.18,17.57-2.63-1.53-1.34-17.41-7.22,12.45-2.84-1.64,10.19-17.56Z"/>
        <path d="M131.3,37.39l4.11,5.54c3.78,5.1,2.88,10.75-1.96,14.34-4.84,3.59-10.56,2.85-14.34-2.25l-4.11-5.54,16.3-12.09ZM131.41,54.53c3.49-2.59,4.33-6.28,1.67-9.87l-2.12-2.86-11.64,8.64,2.12,2.86c2.66,3.59,6.48,3.82,9.97,1.23Z"/>
      </g>
      <g>
        <path d="M45.66,122.35c-2.12,1.71-4.79,1.87-6.94.54l-3.59,8.43-2.33-2.89,3.26-7.68-2.81-3.47-5.73,4.63-2.1-2.59,15.78-12.77,5.03,6.22c2.66,3.29,2.49,7.09-.58,9.57ZM35.5,115.47l2.77,3.43c1.5,1.85,3.54,2.17,5.23.8,1.69-1.37,1.81-3.44.31-5.29l-2.77-3.43-5.54,4.49Z"/>
        <path d="M64.3,126.86l-1.53,2.53-8.48-5.14-2.92,4.81,6.99,4.24-1.49,2.45-6.99-4.24-3.05,5.03,8.78,5.32-1.53,2.53-11.63-7.05,10.52-17.35,11.33,6.87Z"/>
        <path d="M68.67,129.06l2.84,16.42,5.97-15.59,3.15.29,2.93,16.4,5.79-15.6,3.41.31-7.65,19.69-3.87-.35-2.77-15.25-5.43,14.5-3.9-.36-3.9-20.74,3.44.29Z"/>
        <path d="M97.58,128.12l5.29,19.6-3.22.87-5.29-19.6,3.22-.87Z"/>
        <path d="M101.35,127.48l2.61-1.57,15.9,7.21-7.43-12.31,2.81-1.69,10.49,17.38-2.61,1.57-15.9-7.21,7.43,12.32-2.81,1.69-10.49-17.38Z"/>
        <path d="M117.91,116.63l4-5.62c3.68-5.17,9.34-6.06,14.25-2.56,4.92,3.5,5.97,9.16,2.29,14.34l-4,5.62-16.54-11.78ZM134.18,111.23c-3.54-2.52-7.31-2.18-9.9,1.46l-2.07,2.91,11.81,8.41,2.07-2.91c2.59-3.64,1.63-7.35-1.91-9.87Z"/>
      </g>
      <g>
        <path d="M83.28,47.29c19.85,0,36,16.15,36,36s-16.15,36-36,36-36-16.15-36-36,16.15-36,36-36M83.28,44.29c-21.54,0-39,17.46-39,39s17.46,39,39,39,39-17.46,39-39-17.46-39-39-39h0Z"/>
        <g>
          <path d="M79.21,72.91c0,3.65-1.72,6.61-3.83,6.61s-3.83-2.96-3.83-6.61,1.72-6.61,3.83-6.61,3.83,2.96,3.83,6.61Z"/>
          <ellipse cx="92.28" cy="72.51" rx="3.83" ry="6.61"/>
        </g>
        <path d="M114.31,84.1l-1.9-2.32c-1.65,1.35-5.74,1.11-7,.21l-1.74,2.44c.94.67,2.39,1.1,3.96,1.23-1.39,12.12-11.56,21.25-24.3,21.25s-22.95-9.17-24.31-21.34c1.44-.22,2.8-.69,3.77-1.48l-1.9-2.32c-1.65,1.35-5.74,1.11-7,.21l-1.74,2.44c.92.66,2.33,1.08,3.86,1.22,1.45,13.61,13.15,24.26,27.31,24.26s25.98-10.5,27.33-24.36c1.4-.22,2.7-.7,3.64-1.46Z"/>
      </g>
    </g>
  </g>
</svg>