<svg width="16" height="18" viewBox="0 0 16 18" fill="none" xmlns="http://www.w3.org/2000/svg">
<rect width="2" height="10" transform="matrix(1 0 0 -1 4 16)" fill="white"/>
<rect width="2" height="10" transform="matrix(1 0 0 -1 14 16.0005)" fill="white"/>
<rect width="8" height="2" transform="matrix(1 0 0 -1 6 18)" fill="white"/>
<rect width="2" height="10" transform="matrix(1 0 0 -1 0 12)" fill="white"/>
<rect width="2" height="2" transform="matrix(1 0 0 -1 2 14)" fill="white"/>
<rect width="3" height="2" transform="matrix(-5.24537e-08 -1 -1 3.64262e-08 12 5)" fill="white"/>
<rect width="8" height="2" transform="matrix(1 0 0 -1 6 6)" fill="white"/>
<rect width="8" height="2" transform="matrix(1 0 0 -1 2 2)" fill="white"/>
</svg>
